<?xml version="1.0" encoding="utf-8"?>
<!-- Generator: Adobe Illustrator 24.3.0, SVG Export Plug-In . SVG Version: 6.00 Build 0)  -->
<svg version="1.1" id="Layer_1" xmlns="http://www.w3.org/2000/svg" xmlns:xlink="http://www.w3.org/1999/xlink" x="0px" y="0px"
	 viewBox="0 0 1000 174" style="enable-background:new 0 0 1000 174;" xml:space="preserve">
<style type="text/css">
	.st0{fill:#6CAC44;}
	.st1{fill:#005695;}
</style>
<g>
	<path class="st0" d="M315.9,164.8h-48L387.4,41.5h-82.2l9.4-32.2h132.8l-8.7,29.2L315.9,164.8z"/>
	<path class="st1" d="M425.8,133l7.7-23.2h22.3l-2.5,7.1h31.4c0,0,0.8-1.6,2-5.2c1.3-5.5-3.6-8.7-3.6-8.7l-28.3-12.8
		c-9.2-4.4-12.7-9.5-10.2-16.4c2-5.5,4.8-14.2,8.7-25.9h78l-7.6,22.6h-22.5l2.3-6.5H472l-2.1,6.8c-0.7,3.8,1.2,3.8,1.2,3.8L504.8,90
		c7.6,3.5,10.2,8.7,7.9,15.3l-9.4,27.8H425.8L425.8,133z M887.4,133l7.7-23.2h22.3L915,117h31.4c0,0,0.8-1.6,2-5.2
		c1.3-5.5-3.6-8.7-3.6-8.7l-28.3-12.8c-9.2-4.4-12.7-9.5-10.2-16.4c2-5.5,4.8-14.2,8.7-25.9h78l-7.6,22.4h-22.3l2.3-6.3h-31.5
		l-2.1,6.8c-0.8,3.8,1.2,3.8,1.2,3.8L966.7,90c7.6,3.5,10.2,8.7,7.9,15.3l-9.4,27.8L887.4,133L887.4,133z M549.4,117L544,133h-24
		l23.2-69h-8.9l5.6-16.4h82.8l-11.5,34.1c-1.5,4.9-5.6,10.1-11.2,12.8c-5.9,3.3-12,3.5-18.9,3.5h-25.1L549.4,117L549.4,117z
		 M566.1,64l-6.2,19.6c1.5,0,14,0,19.7,0c6.2,0,8.5-9.3,8.5-9.3l3.1-10.4L566.1,64L566.1,64z M626.3,133c-7.2,0-12.5-1.6-15.8-4.9
		c-3.3-3.3-4.1-7.4-2.5-12.8l16.8-49.9c1.8-5.2,5.4-9.5,10.7-12.5c5.4-3.3,11.8-4.9,19.2-4.9h33.5c7.2,0,12.7,1.6,15.9,4.9
		s3.9,7.4,2.3,12.5l-16.8,49.9c-1.8,5.2-5.4,9.5-10.8,12.8c-5.6,3.3-12,4.9-19.2,4.9H626.3z M634.3,109.3c0,0-3,7.6,3.5,7.6
		c3.3,0,27.6,0,27.6,0l15.4-45c0,0,2.8-7.6-3-7.4c-3,0-28.3,0-28.3,0L634.3,109.3z M842.7,133h-24.2l5.4-16.1h-0.2L841.3,64h-12.7
		l-2.3,6.3H804l7.6-22.6h94.8l-7.6,22.6h-22.3l2.1-6.3h-13.1L847.9,117h0.2L842.7,133z M780.4,95.1c5.9-3.3,9.7-8.5,11.2-12.8
		l11.5-34.1h-82.8l-5.6,16.4h8.9l-23.2,69h24.5l5.4-16.1l0,0l6.2-18.5h20.7l11.2,34.4h25.1L780.4,95.1L780.4,95.1z M746.9,64h25.3
		l-3.1,10.4c0,0-2.5,9.3-8.5,9.3h-19.7L746.9,64z M267.9,129.5l-5.8,19.6h-32.9l5.8-19.6h-90.9l15-50.7L259,23.1h40.1l-21.9,74.7
		h48.1L296.5,130h-28.6V129.5z M256.3,56.7l-74.1,40.9h62.3L256.3,56.7z M7,151l13.5-41.7c3.3-10.1,12.3-17.7,26.9-22.9
		c0,0,57.8-19.9,63.6-22.1c7.1-3,8.5-7.4,8.5-7.4l2.8-9.3H75.2l-3.9,12.3H37.6c0,0,2.3-7.4,5.9-17.5c6.6-18,22.7-19.1,22.7-19.1
		l100.1,0.3c-5.9,17.7-10,30.8-12.5,38.7c-3.1,10.1-13.5,18-31.4,24.5l-56.8,19.6l0,0c0,0-9.4,4.4-12.2,13.1
		c-1.8,5.7-2.5,7.1-2.5,7.1h83l-7.4,24H7V151z"/>
</g>
</svg>
