<?xml version="1.0" encoding="utf-8"?>
<!-- Generator: Adobe Illustrator 24.3.0, SVG Export Plug-In . SVG Version: 6.00 Build 0)  -->
<svg version="1.1" id="Layer_1" xmlns="http://www.w3.org/2000/svg" xmlns:xlink="http://www.w3.org/1999/xlink" x="0px" y="0px"
	 viewBox="0 0 550 189" style="enable-background:new 0 0 550 189;" xml:space="preserve">
<style type="text/css">
	.st0{fill:#F2541B;}
	.st1{fill:#22262C;}
</style>
<g id="surface1">
	<path class="st0" d="M136.3,113.3c-0.1,0-0.3-0.1-0.4-0.2c-0.2-0.1-0.2-0.4-0.1-0.6c3.2-10.3,4.2-20.9,3.1-31.6
		c0-0.2-0.1-0.4-0.3-0.4c-10.6-4.9-17.4-15.6-17.4-27.2c0-4,0.7-7.8,2.2-11.5c0.1-0.2,0-0.4-0.1-0.6c-1.8-2.3-3.7-4.6-5.8-6.8
		C106,22.4,90.6,14,74.1,11c-0.3-0.1-0.4-0.3-0.5-0.5c0-0.3,0.2-0.5,0.4-0.6c6.4-1.6,13-2.5,19.5-2.5c17.8,0,34.6,5.8,48.6,16.9
		c0.1,0.1,0.2,0.1,0.3,0.1c0.1,0,0.1,0,0.2,0c2.6-0.8,5.5-1.2,8.4-1.2c16.6,0,30.1,13.5,30.2,30c0,8.3-3.4,16.3-9.5,22
		c-0.1,0.1-0.2,0.3-0.2,0.5c0.5,3.5,0.7,7.1,0.7,10.5c0,0.3,0,0.7,0,1l0,0.6c0,0.1,0,0.2-0.1,0.3c-9.3,11.6-21.7,20.3-35.7,25.2
		L136.3,113.3z M37.7,141.3c-0.2,0-0.3-0.1-0.4-0.2c-14.5-14.8-22.5-34.3-22.5-55c0-3.5,0.2-7,0.7-10.5c0-0.2,0-0.4-0.2-0.5
		c-6.1-5.7-9.5-13.7-9.5-22c0-16.6,13.5-30,30.1-30c2.9,0,5.7,0.4,8.5,1.2c0.1,0,0.1,0,0.2,0c0.1,0,0.2,0,0.3-0.1
		c3.4-2.7,7-5.1,10.7-7.1c0.1,0,0.2-0.1,0.3-0.1c14.8,2.3,28.5,8.7,39.8,18.4c0.2,0.1,0.2,0.4,0.2,0.6c-0.1,0.2-0.2,0.4-0.4,0.4
		c-10.7,2.4-20.5,6.9-29.3,13.4c-0.2,0.1-0.2,0.3-0.2,0.5c0.1,1.1,0.2,2.1,0.2,3C66,68.2,54.9,80.9,40.2,83c-0.2,0-0.4,0.2-0.4,0.3
		c-1.1,2.6-2,5.3-2.8,8c-4.7,16-4.3,33.5,1.3,49.3c0.1,0.2,0,0.5-0.2,0.7C37.9,141.3,37.8,141.3,37.7,141.3 M93.9,182.6
		c-10.8,0-20.8-5.8-26.1-15.1c-1.4-2.5-2.5-5.1-3.2-7.9c0-0.2-0.2-0.3-0.3-0.4c-4-1.6-7.9-3.5-11.4-5.7c-0.1-0.1-0.2-0.2-0.2-0.3
		c-5.3-13.9-6.7-28.9-4-43.4c0-0.2,0.2-0.4,0.4-0.4c0,0,0.1,0,0.1,0c0.2,0,0.4,0.1,0.5,0.2c7.4,8,16.2,14.3,26.2,18.7
		c0.1,0,0.1,0,0.2,0c0.1,0,0.2,0,0.3-0.1c0.9-0.6,1.7-1.2,2.6-1.7c4.5-2.6,9.7-4,14.9-4c9.2,0,18.1,4.3,23.7,11.6
		c0.1,0.1,0.3,0.2,0.4,0.2c0,0,0.1,0,0.1,0c2.7-0.4,5.5-0.9,8.3-1.6c16.2-3.9,31.2-13.1,42.1-25.8c0.1-0.1,0.3-0.2,0.4-0.2
		c0.1,0,0.2,0,0.3,0.1c0.2,0.1,0.3,0.4,0.3,0.6c-6.5,23.2-23.6,42.6-45.9,51.7c-0.2,0.1-0.3,0.2-0.3,0.4
		c-1.9,8.1-7.1,15.1-14.3,19.2C104.3,181.2,99.1,182.6,93.9,182.6"/>
	<path class="st1" d="M508.7,159.4h33.7V23.1h-33.7V159.4z M457.2,134.9c-1.2,0.5-3.5,0.7-5.7,0.7c-9.6,0-14.8-7.5-14.8-23.4
		c0-13.5,5-22.4,14.4-22.4c2.4,0,5,0.5,6.1,1V134.9z M457.2,66.3c-2.4-0.7-6.6-1.4-9.9-1.4c-29.3,0-44.3,18.6-44.3,47.6
		c0,32.1,17.2,49.1,49.1,49.1c16.5,0,30.7-3,38.7-6.9V23.1h-33.7V66.3z M355.4,133.5c-1.4,0.5-4,0.9-7.1,0.9c-6.2,0-9.6-2.6-9.6-8.5
		V65.8H305V125c0,26.2,14.4,36.6,43.2,36.6c15.6,0,31.8-2.8,40.8-6.9V65.8h-33.7V133.5z M256.5,64.2c-5.9,0-11.8,1.2-16.7,3.1V23.1
		h-33.7v136.3h33.7V91.7c1.9-0.9,4.5-1.4,7.1-1.4c7.1,0,10.2,3.5,10.2,9.9v59.2h33.7V96.5C290.9,75.7,279.1,64.2,256.5,64.2"/>
</g>
</svg>
